<svg width="694" height="663" viewBox="0 0 694 663" fill="none" xmlns="http://www.w3.org/2000/svg">
<path d="M694 655.766C694 657.846 694 658.886 693.695 659.719C693.189 661.101 692.101 662.189 690.719 662.695C689.886 663 688.846 663 686.766 663H630C587.266 663 565.899 663 548.02 660.168C449.605 644.581 372.419 567.395 356.832 468.98C354 451.101 354 429.734 354 387C354 383.284 354 381.426 354.246 379.871C355.602 371.313 362.313 364.602 370.871 363.246C372.426 363 374.284 363 378 363H685.95C688.797 363 690.221 363 691.305 363.563C692.218 364.037 692.963 364.782 693.437 365.695C694 366.779 694 368.203 694 371.05V655.766Z" fill="#27A838"/>
<path d="M686 656.128C686 657.87 686 658.741 685.785 659.449C685.301 661.049 684.049 662.301 682.449 662.785C681.741 663 680.87 663 679.128 663H650.96C597.096 663 570.165 663 547.775 658.51C456.823 640.27 385.73 569.177 367.49 478.225C363 455.835 363 428.904 363 375.04C363 370.356 363 368.014 363.39 366.067C364.977 358.158 371.158 351.977 379.067 350.39C381.014 350 383.356 350 388.04 350H677.95C680.797 350 682.221 350 683.305 350.563C684.218 351.037 684.963 351.782 685.437 352.695C686 353.779 686 355.203 686 358.05V656.128Z" fill="#DB5C14"/>
<path d="M676 656.234C676 657.877 676 658.698 675.809 659.369C675.335 661.034 674.034 662.335 672.369 662.809C671.698 663 670.877 663 669.234 663H651.48C592.476 663 562.973 663 538.532 657.617C451.012 638.343 382.657 569.988 363.383 482.468C358 458.027 358 428.524 358 369.52C358 364.389 358 361.824 358.468 359.698C360.144 352.088 366.088 346.144 373.698 344.468C375.824 344 378.389 344 383.52 344H667.95C670.797 344 672.221 344 673.305 344.563C674.218 345.037 674.963 345.782 675.437 346.695C676 347.779 676 349.203 676 352.05V656.234Z" fill="#FFC900"/>
<path d="M665 656.383C665 657.887 665 658.638 664.84 659.256C664.384 661.012 663.012 662.384 661.256 662.84C660.638 663 659.874 663 658.347 663C589.656 663 555.311 663 527.501 655.953C445.675 635.217 381.783 571.325 361.047 489.499C354 461.689 354 427.899 354 360.32C354 354.444 354 351.505 354.613 349.087C356.416 341.972 361.972 336.416 369.087 334.613C371.505 334 374.444 334 380.32 334H656.95C659.797 334 661.221 334 662.305 334.563C663.218 335.037 663.963 335.782 664.437 336.695C665 337.779 665 339.203 665 342.05V656.383Z" fill="#27A838"/>
<path d="M0 19.2341C0 17.1537 0 16.1136 0.30472 15.2812C0.81056 13.8994 1.89938 12.8106 3.28118 12.3047C4.11358 12 5.15373 12 7.23404 12H14.5C103.392 12 147.839 12 183.683 24.1221C251.593 47.0883 304.912 100.407 327.878 168.317C340 204.161 340 248.608 340 337.5C340 426.392 340 470.839 327.878 506.683C304.912 574.594 251.593 627.912 183.683 650.878C147.839 663 103.392 663 14.5 663H7.23404C5.15373 663 4.11358 663 3.28118 662.695C1.89938 662.189 0.81056 661.101 0.30472 659.719C0 658.886 0 657.846 0 655.766V19.2341Z" fill="#3285E8"/>
<path fill-rule="evenodd" clip-rule="evenodd" d="M0 662.975V663H5.28804C94.1805 663 138.627 663 174.471 650.878C242.382 627.912 295.7 574.594 318.666 506.683C330.788 470.839 330.788 426.392 330.788 337.5C330.788 248.608 330.788 204.161 318.666 168.317C295.7 100.407 242.382 47.0883 174.471 24.1221C138.627 12 94.1805 12 5.28806 12H0V12.0246C68.3205 12.1941 106.192 13.5339 137.501 24.1221C205.411 47.0883 258.729 100.407 281.695 168.317C293.818 204.161 293.818 248.608 293.818 337.5C293.818 426.392 293.818 470.839 281.695 506.683C258.729 574.594 205.411 627.912 137.501 650.878C106.192 661.466 68.3205 662.806 0 662.975Z" fill="#1359AC"/>
<path d="M694 7.23404C694 5.15373 694 4.11358 693.695 3.28118C693.189 1.89938 692.101 0.81056 690.719 0.30472C689.886 0 688.846 0 686.766 0H648.4C588.539 0 558.608 0 533.827 5.53914C446.878 24.9746 378.975 92.8779 359.539 179.827C354 204.608 354 234.539 354 294.4C354 299.605 354 302.208 354.482 304.363C356.172 311.924 362.076 317.828 369.637 319.518C371.792 320 374.395 320 379.6 320H685.95C688.797 320 690.221 320 691.305 319.437C692.218 318.963 692.963 318.218 693.437 317.305C694 316.221 694 314.797 694 311.95V7.23404Z" fill="#E64545"/>
<circle cx="133.785" cy="505.988" r="62.0117" fill="#D9D9D9"/>
<path d="M109.864 156.609V131.45C109.864 122.624 109.864 118.211 111.663 114.877C113.053 112.302 115.166 110.189 117.741 108.799C121.076 107 125.489 107 134.314 107H135.024C143.849 107 148.262 107 151.596 108.799C154.172 110.189 156.285 112.302 157.675 114.877C159.474 118.211 159.474 122.624 159.474 131.45V156.609H109.864Z" fill="#D9D9D9"/>
<path d="M161.729 158.864H186.888C195.714 158.864 200.127 158.864 203.461 160.663C206.037 162.053 208.15 164.166 209.539 166.741C211.338 170.076 211.338 174.489 211.338 183.314V184.024C211.338 192.849 211.338 197.262 209.539 200.596C208.15 203.172 206.037 205.285 203.461 206.675C200.127 208.474 195.714 208.474 186.888 208.474H161.729V158.864Z" fill="#D9D9D9"/>
<path d="M159.474 210.729V235.888C159.474 244.714 159.474 249.127 157.675 252.461C156.285 255.036 154.172 257.149 151.596 258.539C148.262 260.338 143.849 260.338 135.024 260.338H134.314C125.489 260.338 121.076 260.338 117.741 258.539C115.166 257.149 113.053 255.036 111.663 252.461C109.864 249.127 109.864 244.714 109.864 235.888V210.729H159.474Z" fill="#D9D9D9"/>
<path d="M107.609 208.474H82.45C73.6242 208.474 69.2114 208.474 65.8771 206.675C63.3016 205.285 61.1888 203.172 59.799 200.596C58 197.262 58 192.849 58 184.024V183.314C58 174.489 58 170.076 59.799 166.741C61.1888 164.166 63.3016 162.053 65.8771 160.663C69.2114 158.864 73.6242 158.864 82.45 158.864H107.609V208.474Z" fill="#D9D9D9"/>
<circle cx="540" cy="185" r="79.5" stroke="#FD8181" stroke-width="15"/>
<circle cx="540" cy="185" r="59" stroke="#F3ADAD" stroke-width="12"/>
<path d="M535.332 150.181C528.89 150.865 522.794 153.468 517.814 157.662C512.833 161.856 509.192 167.452 507.351 173.742C505.51 180.032 505.551 186.734 507.47 193" stroke="#CCCCCC" stroke-width="12" stroke-linecap="round"/>
<rect x="598" y="43" width="73" height="40" rx="14" fill="#D9D9D9"/>
<rect x="602" y="47" width="65" height="32" rx="10" stroke="#F33F3F" stroke-opacity="0.5" stroke-width="8"/>
<path d="M0 7.23406C0 5.15374 0 4.11358 0.30472 3.28118C0.81056 1.89938 1.89938 0.81056 3.28118 0.30472C4.11358 0 5.16274 0 7.26108 0C102.596 0 150.263 0 188.131 13.6773C252.448 36.9072 303.093 87.5519 326.323 151.869C340 189.737 340 236.991 340 331.5C340 426.009 340 473.263 326.323 511.131C303.093 575.448 252.448 626.093 188.131 649.323C150.263 663 102.596 663 7.26108 663C5.16274 663 4.11358 663 3.28118 662.695C1.89938 662.189 0.81056 661.101 0.30472 659.719C0 658.886 0 657.846 0 655.766V7.23406Z" fill="#3082FC"/>
<path fill-rule="evenodd" clip-rule="evenodd" d="M0 662.962V663C93.8418 663 140.763 663 178.393 649.512C243.135 626.306 294.094 575.347 317.3 510.605C330.788 472.975 330.788 425.816 330.788 331.5C330.788 237.184 330.788 190.025 317.3 152.395C294.094 87.6533 243.135 36.6936 178.393 13.488C140.763 0 93.8418 0 0 0V0.037706C69.9065 0.267664 109.093 1.90007 141.423 13.488C206.164 36.6936 257.124 87.6533 280.329 152.395C293.818 190.025 293.818 237.184 293.818 331.5C293.818 425.816 293.818 472.975 280.329 510.605C257.124 575.347 206.164 626.306 141.423 649.512C109.093 661.1 69.9065 662.732 0 662.962Z" fill="#1359AC"/>
<path d="M694 7.23404C694 5.15373 694 4.11358 693.695 3.28118C693.189 1.89938 692.101 0.81056 690.719 0.30472C689.886 0 688.846 0 686.766 0H648.4C588.539 0 558.608 0 533.827 5.53914C446.878 24.9746 378.975 92.8779 359.539 179.827C354 204.608 354 234.539 354 294.4C354 299.605 354 302.208 354.482 304.363C356.172 311.924 362.076 317.828 369.637 319.518C371.792 320 374.395 320 379.6 320H685.95C688.797 320 690.221 320 691.305 319.437C692.218 318.963 692.963 318.218 693.437 317.305C694 316.221 694 314.797 694 311.95V7.23404Z" fill="#EC4136"/>
<circle cx="133.785" cy="499.988" r="62.0117" fill="#F1F4F2"/>
<path d="M109.864 150.609V125.45C109.864 116.624 109.864 112.211 111.663 108.877C113.053 106.302 115.166 104.189 117.741 102.799C121.076 101 125.489 101 134.314 101H135.024C143.849 101 148.262 101 151.596 102.799C154.172 104.189 156.285 106.302 157.675 108.877C159.474 112.211 159.474 116.624 159.474 125.45V150.609H109.864Z" fill="#F1F4F2"/>
<path d="M161.729 152.864H186.888C195.714 152.864 200.127 152.864 203.461 154.663C206.037 156.053 208.15 158.166 209.539 160.741C211.338 164.076 211.338 168.489 211.338 177.314V178.024C211.338 186.849 211.338 191.262 209.539 194.596C208.15 197.172 206.037 199.285 203.461 200.675C200.127 202.474 195.714 202.474 186.888 202.474H161.729V152.864Z" fill="#F1F4F2"/>
<path d="M159.474 204.729V229.888C159.474 238.714 159.474 243.127 157.675 246.461C156.285 249.036 154.172 251.149 151.596 252.539C148.262 254.338 143.849 254.338 135.024 254.338H134.314C125.489 254.338 121.076 254.338 117.741 252.539C115.166 251.149 113.053 249.036 111.663 246.461C109.864 243.127 109.864 238.714 109.864 229.888V204.729H159.474Z" fill="#F1F4F2"/>
<path d="M107.609 202.474H82.45C73.6242 202.474 69.2114 202.474 65.8771 200.675C63.3016 199.285 61.1888 197.172 59.799 194.596C58 191.262 58 186.849 58 178.024V177.314C58 168.489 58 164.076 59.799 160.741C61.1888 158.166 63.3016 156.053 65.8771 154.663C69.2114 152.864 73.6242 152.864 82.45 152.864H107.609V202.474Z" fill="#F1F4F2"/>
<circle cx="540" cy="185" r="79.5" stroke="#FD8181" stroke-width="15"/>
<circle cx="540" cy="185" r="59" stroke="#F3ADAD" stroke-width="12"/>
<path d="M535.332 150.181C528.89 150.865 522.794 153.468 517.814 157.662C512.833 161.856 509.192 167.452 507.351 173.742C505.51 180.032 505.551 186.734 507.47 193" stroke="#CCCCCC" stroke-width="12" stroke-linecap="round"/>
<rect x="598" y="43" width="73" height="40" rx="14" fill="#F1F4F2"/>
<rect x="602" y="47" width="65" height="32" rx="10" stroke="#F33F3F" stroke-opacity="0.5" stroke-width="8"/>
</svg>
