<svg width="26" height="7" viewBox="0 0 26 7" fill="none" xmlns="http://www.w3.org/2000/svg">
<path d="M0 0H6.5V6.5H0V0Z" fill="#3082FC"/>
<path d="M6.5 0H0V0.06532C0.021641 0.06511 0.0433079 0.0650001 0.065 0.0650001C3.58305 0.0650001 6.435 2.91695 6.435 6.435C6.435 6.4567 6.43489 6.4784 6.43467 6.5H6.5V0Z" fill="#FFBD25"/>
<path d="M13 0H6.5V6.5H13V0Z" fill="#5EBC6A"/>
<path d="M6.5 0H13V0.0653248C12.9784 0.0651084 12.9567 0.065 12.935 0.065C9.41695 0.065 6.565 2.91695 6.565 6.435C6.565 6.45669 6.56511 6.47836 6.56532 6.5H6.5V0Z" fill="url(#paint0_linear_379_44115)"/>
<path d="M13 6.5H19.5V0H13V6.5Z" fill="#EC4136"/>
<path d="M19.5 6.5H13V6.43467C13.0216 6.43489 13.0433 6.435 13.065 6.435C16.5831 6.435 19.435 3.58305 19.435 0.065C19.435 0.0433079 19.4349 0.021641 19.4347 0H19.5V6.5Z" fill="#3082FC"/>
<path d="M26 6.5H19.5V0H26V6.5Z" fill="#E790E7"/>
<path d="M19.5 6.5H26V6.4347C25.9784 6.4349 25.9567 6.435 25.935 6.435C22.417 6.435 19.565 3.5831 19.565 0.0650001C19.565 0.0433101 19.5651 0.02164 19.5653 0H19.5V6.5Z" fill="#EC4136"/>
<defs>
<linearGradient id="paint0_linear_379_44115" x1="9.99556" y1="3.33125" x2="20.5338" y2="5.57865" gradientUnits="userSpaceOnUse">
<stop stop-color="#F392FD"/>
<stop offset="0.555" stop-color="#FD8DB9"/>
<stop offset="0.96" stop-color="#F88E4E"/>
</linearGradient>
</defs>
</svg>
