<svg width="61" height="13" viewBox="0 0 61 13" fill="none" xmlns="http://www.w3.org/2000/svg">
<path d="M10.624 3.968C10.624 5.856 8.784 7.024 5.872 7.024H4.688C4.288 7.024 3.92 7.12 3.92 8.032C3.92 10.128 4.768 10.56 4.768 11.28C4.768 11.568 4.592 12 3.92 12H1.248C0.56 12 0.4 11.568 0.4 11.28C0.4 10.56 1.248 10.128 1.248 8.032V4.864C1.248 2.768 0.4 2.336 0.4 1.632C0.4 1.344 0.56 0.896 1.248 0.896H5.872C8.784 0.896 10.624 2.064 10.624 3.968ZM3.92 4.864C3.92 5.792 4.288 5.888 4.688 5.888H5.872C7.072 5.888 7.84 5.136 7.84 3.968C7.84 2.784 7.072 2.032 5.872 2.032H4.688C4.288 2.032 3.92 2.128 3.92 3.056V4.864ZM12.0293 12C11.3413 12 11.1813 11.568 11.1813 11.28C11.1813 10.56 12.0293 10.128 12.0293 8.032V4.864C12.0293 2.768 11.1813 2.336 11.1813 1.632C11.1813 1.344 11.3413 0.896 12.0293 0.896H14.7013C15.3733 0.896 15.5493 1.344 15.5493 1.632C15.5493 2.336 14.7013 2.768 14.7013 4.864V8.032C14.7013 10.128 15.5493 10.56 15.5493 11.28C15.5493 11.568 15.3733 12 14.7013 12H12.0293ZM16.3528 11.28C16.3528 10.56 17.2008 10.128 17.2008 8.032V3.792C17.2008 2.496 16.3528 2.32 16.3528 1.632C16.3528 1.344 16.5128 0.896 17.2008 0.896H18.3528C19.3288 0.943999 19.6008 1.296 20.2088 2.048L24.5768 7.648V4.864C24.5768 2.768 23.7288 2.336 23.7288 1.632C23.7288 1.344 23.9048 0.896 24.5768 0.896H25.7288C26.4008 0.896 26.5768 1.344 26.5768 1.632C26.5768 2.336 25.7288 2.768 25.7288 4.864V11.312C25.7288 11.632 25.5368 12 25.1208 12H25.0568C24.6408 12 24.2248 11.456 23.9048 11.056L19.2488 5.104C18.9448 4.72 18.6408 4.368 18.3528 4.048V8.032C18.3528 10.128 19.2008 10.56 19.2008 11.28C19.2008 11.568 19.0248 12.016 18.3528 12.016H17.2008C16.5128 12.016 16.3528 11.568 16.3528 11.28ZM27.2906 11.28C27.2906 10.56 28.1386 10.128 28.1386 8.032V4.864C28.1386 2.768 27.2906 2.336 27.2906 1.632C27.2906 1.344 27.4506 0.896 28.1386 0.896H30.8106C31.4826 0.896 31.6586 1.344 31.6586 1.632C31.6586 2.336 30.8106 2.768 30.8106 4.864V5.504L33.3386 3.808C34.5706 2.976 34.0426 2.608 34.0426 1.776C34.0426 0.992 34.8266 0.639999 35.8186 0.639999C37.5146 0.639999 37.7066 2.176 36.2986 3.136L33.8026 4.832C33.1306 5.424 33.2106 5.792 33.6266 6.416L34.8586 8.208C36.3626 10.432 37.8346 9.744 37.8346 10.736C37.8346 11.168 37.3386 12.256 35.9466 12.256C34.3146 12.256 33.5626 11.28 32.0426 8.848L30.8106 6.88V8.032C30.8106 10.128 31.6586 10.56 31.6586 11.28C31.6586 11.568 31.4826 12 30.8106 12H28.1386C27.4506 12 27.2906 11.568 27.2906 11.28ZM37.9367 11.28C37.9367 10.352 39.0247 10.128 39.9048 8.032L42.4488 1.92C42.7368 1.232 42.9608 0.896 43.5368 0.896H44.0008C44.5928 0.896 44.7848 1.216 45.0888 1.92L47.7448 8.016C48.5768 9.968 49.7768 10.576 49.7768 11.28C49.7768 11.568 49.6008 12.016 48.9128 12.016H46.0168C45.3448 12.016 45.1688 11.568 45.1688 11.28C45.1688 10.736 45.4888 10.32 45.2808 9.312C45.0728 8.544 44.8328 8.288 44.2248 8.288H41.7768C41.1848 8.288 40.9448 8.528 40.7368 9.264C40.4968 10.352 40.8808 10.736 40.8808 11.28C40.8808 11.568 40.7048 12.016 40.0168 12.016H38.7848C38.0968 12.016 37.9367 11.568 37.9367 11.28ZM42.2248 7.152H43.7128C44.2088 7.152 44.4168 7.12 44.0008 6.144L42.9448 3.728L41.8728 6.272C41.5368 7.12 41.7608 7.152 42.2248 7.152ZM50.1496 11.28C50.1496 10.56 50.9976 10.128 50.9976 8.032V3.792C50.9976 2.496 50.1496 2.32 50.1496 1.632C50.1496 1.344 50.3096 0.896 50.9976 0.896H52.1496C53.1256 0.943999 53.3976 1.296 54.0056 2.048L58.3736 7.648V4.864C58.3736 2.768 57.5256 2.336 57.5256 1.632C57.5256 1.344 57.7016 0.896 58.3736 0.896H59.5256C60.1976 0.896 60.3736 1.344 60.3736 1.632C60.3736 2.336 59.5256 2.768 59.5256 4.864V11.312C59.5256 11.632 59.3336 12 58.9176 12H58.8536C58.4376 12 58.0216 11.456 57.7016 11.056L53.0456 5.104C52.7416 4.72 52.4376 4.368 52.1496 4.048V8.032C52.1496 10.128 52.9976 10.56 52.9976 11.28C52.9976 11.568 52.8216 12.016 52.1496 12.016H50.9976C50.3096 12.016 50.1496 11.568 50.1496 11.28Z" fill="#3082FC"/>
</svg>
