<svg width="13" height="13" viewBox="0 0 13 13" fill="none" xmlns="http://www.w3.org/2000/svg">
<path d="M6.5 0H0V6.5H6.5V0Z" fill="#5EBC6A"/>
<path d="M0 0H6.5V0.0653248C6.47836 0.0651084 6.45669 0.065 6.435 0.065C2.91695 0.065 0.065 2.91695 0.065 6.435C0.065 6.45669 0.0651084 6.47836 0.0653248 6.5H0V0Z" fill="url(#paint0_linear_378_44174)"/>
<path d="M6.5 6.5H13V0H6.5V6.5Z" fill="#EC4136"/>
<path d="M13 6.5H6.5V6.43467C6.52164 6.43489 6.54331 6.435 6.565 6.435C10.0831 6.435 12.935 3.58305 12.935 0.065C12.935 0.0433079 12.9349 0.021641 12.9347 0H13V6.5Z" fill="#3082FC"/>
<path d="M13 13H6.5V6.5H13V13Z" fill="#E790E7"/>
<path d="M6.5 13H13V12.9347C12.9784 12.9349 12.9567 12.935 12.935 12.935C9.41695 12.935 6.565 10.0831 6.565 6.565C6.565 6.54331 6.56511 6.52164 6.56532 6.5H6.5V13Z" fill="#EC4136"/>
<path d="M0 6.5H6.5V13H0V6.5Z" fill="#3082FC"/>
<path d="M6.5 6.5H0V6.56532C0.021641 6.56511 0.0433079 6.565 0.065 6.565C3.58305 6.565 6.435 9.41695 6.435 12.935C6.435 12.9567 6.43489 12.9784 6.43467 13H6.5V6.5Z" fill="#FFBD25"/>
<defs>
<linearGradient id="paint0_linear_378_44174" x1="3.49556" y1="3.33125" x2="14.0338" y2="5.57865" gradientUnits="userSpaceOnUse">
<stop stop-color="#F392FD"/>
<stop offset="0.555" stop-color="#FD8DB9"/>
<stop offset="0.96" stop-color="#F88E4E"/>
</linearGradient>
</defs>
</svg>
