<svg width="200" height="200" viewBox="0 0 200 200" fill="none" xmlns="http://www.w3.org/2000/svg">
<path d="M100 0H0V100H100V0Z" fill="#5EBC6A"/>
<path d="M0 0H100V1.005C99.6671 1.00167 99.3337 1 99 1C44.8761 1 1 44.8761 1 99C1 99.3337 1.00167 99.6671 1.005 100H0V0Z" fill="#FFBD25"/>
<path d="M100 100H200V0H100V100Z" fill="#EC4136"/>
<path d="M200 100H100V98.995C100.333 98.9983 100.666 99 101 99C155.124 99 199 55.1239 199 1C199 0.666275 198.998 0.332939 198.995 0H200V100Z" fill="#FFBD25"/>
<path d="M200 200H100V100H200V200Z" fill="#E790E7"/>
<path d="M100 200H200V198.995C199.667 198.998 199.334 199 199 199C144.876 199 101 155.124 101 101C101 100.666 101.002 100.333 101.005 100H100V200Z" fill="#FFBD25"/>
<path d="M0 100H100V200H0V100Z" fill="#3082FC"/>
<path d="M100 100H0V101.005C0.332939 101.002 0.666275 101 1 101C55.1239 101 99 144.876 99 199C99 199.334 98.9983 199.667 98.995 200H100V100Z" fill="#FFBD25"/>
</svg>
